<svg viewBox="-120 0 720 480" xmlns="http://www.w3.org/2000/svg" role="img" aria-label="The Cohort loop: analyze, plan, generate org and specialists, batch spawn, verify, review, integrate, replan, then repeat">
  <style>
    .co-node { fill: #FBFBFA; stroke: #0F766E; stroke-width: 2; }
    .co-arc { stroke: #0F766E; stroke-width: 1.8; fill: none; }
    .co-arrowhead { fill: #0F766E; }
    .co-label { fill: #5B6470; font-family: "Geist Mono", "JetBrains Mono", "SF Mono", ui-monospace, monospace; font-size: 13px; }
    .co-num { fill: #5B6470; font-family: "Geist Mono", "JetBrains Mono", "SF Mono", ui-monospace, monospace; font-size: 11px; }
    .co-center { fill: #5B6470; font-family: "Geist Mono", "JetBrains Mono", "SF Mono", ui-monospace, monospace; font-size: 11px; letter-spacing: 0.08em; }
    @media (prefers-color-scheme: dark) {
      .co-node { fill: #141618; }
      .co-arc { stroke: #2DD4BF; }
      .co-arrowhead { fill: #2DD4BF; }
      .co-label { fill: #B8BCC0; }
      .co-num { fill: #B8BCC0; }
      .co-center { fill: #B8BCC0; }
    }
  </style>

  <defs>
    <marker id="loop-arrow" viewBox="0 0 10 10" refX="8" refY="5" markerWidth="6" markerHeight="6" orient="auto-start-reverse">
      <path d="M0,0 L10,5 L0,10 z" class="co-arrowhead" />
    </marker>
  </defs>

  <!-- 8 arcs around the circle (r=170, center 240,240), each connecting consecutive nodes, closing the loop -->
  <path class="co-arc" d="M 240,70 A 170,170 0 0,1 360,120" marker-end="url(#loop-arrow)" />
  <path class="co-arc" d="M 360,120 A 170,170 0 0,1 410,240" marker-end="url(#loop-arrow)" />
  <path class="co-arc" d="M 410,240 A 170,170 0 0,1 360,360" marker-end="url(#loop-arrow)" />
  <path class="co-arc" d="M 360,360 A 170,170 0 0,1 240,410" marker-end="url(#loop-arrow)" />
  <path class="co-arc" d="M 240,410 A 170,170 0 0,1 120,360" marker-end="url(#loop-arrow)" />
  <path class="co-arc" d="M 120,360 A 170,170 0 0,1 70,240" marker-end="url(#loop-arrow)" />
  <path class="co-arc" d="M 70,240 A 170,170 0 0,1 120,120" marker-end="url(#loop-arrow)" />
  <path class="co-arc" d="M 120,120 A 170,170 0 0,1 240,70" marker-end="url(#loop-arrow)" />

  <!-- center caption -->
  <text class="co-center" x="240" y="236" text-anchor="middle">CONTINUOUS</text>
  <text class="co-center" x="240" y="250" text-anchor="middle">LOOP</text>

  <!-- nodes -->
  <circle class="co-node" cx="240" cy="70" r="9" />
  <circle class="co-node" cx="360" cy="120" r="9" />
  <circle class="co-node" cx="410" cy="240" r="9" />
  <circle class="co-node" cx="360" cy="360" r="9" />
  <circle class="co-node" cx="240" cy="410" r="9" />
  <circle class="co-node" cx="120" cy="360" r="9" />
  <circle class="co-node" cx="70" cy="240" r="9" />
  <circle class="co-node" cx="120" cy="120" r="9" />

  <!-- labels, offset outward from each node -->
  <text class="co-num" x="240" y="40" text-anchor="middle">1</text>
  <text class="co-label" x="240" y="56" text-anchor="middle">analyze</text>

  <text class="co-num" x="398" y="90" text-anchor="start">2</text>
  <text class="co-label" x="398" y="106" text-anchor="start">plan</text>

  <text class="co-num" x="450" y="222" text-anchor="start">3</text>
  <text class="co-label" x="450" y="238" text-anchor="start">generate org</text>
  <text class="co-label" x="450" y="255" text-anchor="start">/ specialists</text>

  <text class="co-num" x="398" y="398" text-anchor="start">4</text>
  <text class="co-label" x="398" y="414" text-anchor="start">batch spawn</text>

  <text class="co-num" x="240" y="446" text-anchor="middle">5</text>
  <text class="co-label" x="240" y="462" text-anchor="middle">verify</text>

  <text class="co-num" x="82" y="398" text-anchor="end">6</text>
  <text class="co-label" x="82" y="414" text-anchor="end">review</text>

  <text class="co-num" x="30" y="222" text-anchor="end">7</text>
  <text class="co-label" x="30" y="238" text-anchor="end">integrate</text>

  <text class="co-num" x="82" y="90" text-anchor="end">8</text>
  <text class="co-label" x="82" y="106" text-anchor="end">replan</text>
</svg>
